<svg xmlns="http://www.w3.org/2000/svg" width="1600" height="900" viewBox="0 0 1600 900" role="img" aria-labelledby="title desc">
  <title id="title">proyecMexico Showcase</title>
  <desc id="desc">Ilustracion demostrativa de una suite administrativa Java con ventas, inventario, laboratorio y reportes.</desc>
  <defs>
    <linearGradient id="bg" x1="0" y1="0" x2="1" y2="1">
      <stop offset="0%" stop-color="#111827"/>
      <stop offset="100%" stop-color="#4338ca"/>
    </linearGradient>
  </defs>
  <rect width="1600" height="900" fill="url(#bg)"/>
  <circle cx="1350" cy="140" r="170" fill="#c4b5fd" opacity="0.14"/>
  <text x="110" y="120" fill="#ffffff" font-family="Segoe UI, Arial, sans-serif" font-size="48" font-weight="700">proyecMexico</text>
  <text x="110" y="165" fill="#d9d6fe" font-family="Segoe UI, Arial, sans-serif" font-size="24">Suite administrativa web en Java con modulos operativos y multiples roles</text>
  <rect x="95" y="210" width="1410" height="610" rx="36" fill="#f8faff" opacity="0.98"/>
  <rect x="125" y="242" width="255" height="545" rx="28" fill="#1f2544"/>
  <text x="160" y="298" fill="#ffffff" font-family="Segoe UI, Arial, sans-serif" font-size="28" font-weight="700">Roles</text>
  <text x="160" y="356" fill="#c7d2fe" font-family="Segoe UI, Arial, sans-serif" font-size="24">Administrador</text>
  <text x="160" y="404" fill="#c7d2fe" font-family="Segoe UI, Arial, sans-serif" font-size="24">Sucursal</text>
  <text x="160" y="452" fill="#c7d2fe" font-family="Segoe UI, Arial, sans-serif" font-size="24">Almacen</text>
  <text x="160" y="500" fill="#c7d2fe" font-family="Segoe UI, Arial, sans-serif" font-size="24">Laboratorio</text>
  <text x="160" y="548" fill="#c7d2fe" font-family="Segoe UI, Arial, sans-serif" font-size="24">Supervisor</text>
  <rect x="160" y="615" width="190" height="120" rx="24" fill="#2d3560"/>
  <text x="190" y="665" fill="#ffffff" font-family="Segoe UI, Arial, sans-serif" font-size="24" font-weight="700">241 acciones</text>
  <text x="190" y="702" fill="#c7d2fe" font-family="Segoe UI, Arial, sans-serif" font-size="20">Tipo en MuestraSelects</text>
  <rect x="415" y="248" width="245" height="118" rx="24" fill="#e0e7ff"/>
  <text x="448" y="296" fill="#3730a3" font-family="Segoe UI, Arial, sans-serif" font-size="26" font-weight="700">Ventas</text>
  <text x="448" y="342" fill="#4f46e5" font-family="Segoe UI, Arial, sans-serif" font-size="40" font-weight="700">Resumen diario</text>
  <rect x="690" y="248" width="245" height="118" rx="24" fill="#dcfce7"/>
  <text x="723" y="296" fill="#166534" font-family="Segoe UI, Arial, sans-serif" font-size="26" font-weight="700">Inventario</text>
  <text x="723" y="342" fill="#16a34a" font-family="Segoe UI, Arial, sans-serif" font-size="40" font-weight="700">Mostrador y almacen</text>
  <rect x="965" y="248" width="245" height="118" rx="24" fill="#fee2e2"/>
  <text x="998" y="296" fill="#b91c1c" font-family="Segoe UI, Arial, sans-serif" font-size="26" font-weight="700">Laboratorio</text>
  <text x="998" y="342" fill="#dc2626" font-family="Segoe UI, Arial, sans-serif" font-size="40" font-weight="700">Ordenes y estatus</text>
  <rect x="1240" y="248" width="230" height="118" rx="24" fill="#fef3c7"/>
  <text x="1273" y="296" fill="#b45309" font-family="Segoe UI, Arial, sans-serif" font-size="26" font-weight="700">Reportes</text>
  <text x="1273" y="342" fill="#d97706" font-family="Segoe UI, Arial, sans-serif" font-size="40" font-weight="700">Ticket y Excel</text>
  <rect x="415" y="398" width="710" height="360" rx="30" fill="#ffffff"/>
  <text x="450" y="446" fill="#1f2a44" font-family="Segoe UI, Arial, sans-serif" font-size="30" font-weight="700">Operacion diaria</text>
  <rect x="450" y="480" width="640" height="62" rx="18" fill="#eef2ff"/>
  <text x="480" y="519" fill="#334155" font-family="Segoe UI, Arial, sans-serif" font-size="22">Cliente nuevo, historial clinico, graduacion y venta</text>
  <rect x="450" y="558" width="640" height="62" rx="18" fill="#ecfdf5"/>
  <text x="480" y="597" fill="#334155" font-family="Segoe UI, Arial, sans-serif" font-size="22">Inventario, abonos, gastos, balances y solicitudes</text>
  <rect x="450" y="636" width="640" height="88" rx="18" fill="#1f2544"/>
  <text x="480" y="685" fill="#ffffff" font-family="Consolas, monospace" font-size="22">Servlets + SQL + utilidades + frontend Ajax</text>
  <text x="480" y="715" fill="#c7d2fe" font-family="Segoe UI, Arial, sans-serif" font-size="20">Arquitectura legacy con alto volumen funcional</text>
  <rect x="1160" y="398" width="310" height="360" rx="30" fill="#eef2ff"/>
  <text x="1190" y="446" fill="#3730a3" font-family="Segoe UI, Arial, sans-serif" font-size="30" font-weight="700">Dimensiones</text>
  <text x="1190" y="500" fill="#4f46e5" font-family="Segoe UI, Arial, sans-serif" font-size="26">92 archivos Java</text>
  <text x="1190" y="544" fill="#4f46e5" font-family="Segoe UI, Arial, sans-serif" font-size="26">1,698 metodos</text>
  <text x="1190" y="588" fill="#4f46e5" font-family="Segoe UI, Arial, sans-serif" font-size="26">Varios modulos de negocio</text>
  <text x="1190" y="632" fill="#4f46e5" font-family="Segoe UI, Arial, sans-serif" font-size="26">Suite multi-rol</text>
  <rect x="1190" y="670" width="220" height="18" rx="9" fill="#c4b5fd"/>
  <rect x="1190" y="704" width="185" height="18" rx="9" fill="#818cf8"/>
</svg>
